<svg width="27" height="27" viewBox="0 0 27 27" fill="none" xmlns="http://www.w3.org/2000/svg">
<g id="close">
<g id="Vector">
<mask id="path-1-inside-1_1738_3846" fill="white">
<path d="M14.5305 14.5305L24.5361 14.5305C24.7079 14.5438 24.8805 14.5215 25.0432 14.4648C25.2059 14.4082 25.3552 14.3186 25.4816 14.2016C25.6081 14.0846 25.7089 13.9427 25.7779 13.7848C25.8469 13.6269 25.8825 13.4565 25.8825 13.2842C25.8825 13.112 25.8469 12.9416 25.7779 12.7837C25.7089 12.6258 25.6081 12.4839 25.4816 12.3669C25.3552 12.2499 25.2059 12.1603 25.0432 12.1037C24.8805 12.047 24.7079 12.0247 24.5361 12.038L14.5305 12.038L14.5305 2.03241C14.5062 1.71852 14.3644 1.42535 14.1334 1.21149C13.9023 0.997633 13.5991 0.878834 13.2843 0.878833C12.9694 0.878833 12.6662 0.997633 12.4351 1.21149C12.2041 1.42535 12.0623 1.71852 12.038 2.03241L12.038 12.038L2.03242 12.038C1.70219 12.039 1.38576 12.1706 1.15225 12.4041C0.918744 12.6376 0.787126 12.954 0.786143 13.2842C0.787126 13.6145 0.918744 13.9309 1.15225 14.1644C1.38576 14.3979 1.70219 14.5295 2.03242 14.5305L12.038 14.5305L12.038 24.5361C12.039 24.8663 12.1706 25.1827 12.4041 25.4162C12.6376 25.6498 12.954 25.7814 13.2843 25.7824C13.6145 25.7814 13.9309 25.6498 14.1644 25.4162C14.3979 25.1827 14.5295 24.8663 14.5305 24.5361V14.5305Z"/>
</mask>
<path d="M14.5305 14.5305L24.5361 14.5305C24.7079 14.5438 24.8805 14.5215 25.0432 14.4648C25.2059 14.4082 25.3552 14.3186 25.4816 14.2016C25.6081 14.0846 25.7089 13.9427 25.7779 13.7848C25.8469 13.6269 25.8825 13.4565 25.8825 13.2842C25.8825 13.112 25.8469 12.9416 25.7779 12.7837C25.7089 12.6258 25.6081 12.4839 25.4816 12.3669C25.3552 12.2499 25.2059 12.1603 25.0432 12.1037C24.8805 12.047 24.7079 12.0247 24.5361 12.038L14.5305 12.038L14.5305 2.03241C14.5062 1.71852 14.3644 1.42535 14.1334 1.21149C13.9023 0.997633 13.5991 0.878834 13.2843 0.878833C12.9694 0.878833 12.6662 0.997633 12.4351 1.21149C12.2041 1.42535 12.0623 1.71852 12.038 2.03241L12.038 12.038L2.03242 12.038C1.70219 12.039 1.38576 12.1706 1.15225 12.4041C0.918744 12.6376 0.787126 12.954 0.786143 13.2842C0.787126 13.6145 0.918744 13.9309 1.15225 14.1644C1.38576 14.3979 1.70219 14.5295 2.03242 14.5305L12.038 14.5305L12.038 24.5361C12.039 24.8663 12.1706 25.1827 12.4041 25.4162C12.6376 25.6498 12.954 25.7814 13.2843 25.7824C13.6145 25.7814 13.9309 25.6498 14.1644 25.4162C14.3979 25.1827 14.5295 24.8663 14.5305 24.5361V14.5305Z" fill="black"/>
<path d="M14.5305 14.5305L14.5305 12.0305H12.0305L12.0305 14.5305L14.5305 14.5305ZM24.5361 14.5305L24.7289 12.038L24.6327 12.0305H24.5361L24.5361 14.5305ZM24.5361 12.038L24.5361 14.538H24.6327L24.7289 14.5305L24.5361 12.038ZM14.5305 12.038L12.0305 12.038L12.0305 14.538L14.5305 14.538L14.5305 12.038ZM14.5305 2.03241L17.0305 2.03241V1.93585L17.0231 1.83957L14.5305 2.03241ZM12.038 2.03241L9.54543 1.83957L9.53798 1.93585V2.03241L12.038 2.03241ZM12.038 12.038L12.038 14.538L14.538 14.538L14.538 12.038H12.038ZM2.03242 12.038L2.03242 9.53796L2.02498 9.53798L2.03242 12.038ZM0.786143 13.2842L-1.71385 13.2768L-1.71387 13.2842L-1.71385 13.2917L0.786143 13.2842ZM2.03242 14.5305L2.02498 17.0305L2.03242 17.0305L2.03242 14.5305ZM12.038 14.5305L14.538 14.5305V12.0305L12.038 12.0305L12.038 14.5305ZM12.038 24.5361L9.53797 24.5361L9.53799 24.5435L12.038 24.5361ZM13.2843 25.7824L13.2768 28.2823L13.2843 28.2824L13.2917 28.2823L13.2843 25.7824ZM14.5305 24.5361L17.0305 24.5435L17.0305 24.5361L14.5305 24.5361ZM14.5305 17.0305L24.5361 17.0305L24.5361 12.0305L14.5305 12.0305L14.5305 17.0305ZM24.3432 17.0231C24.8585 17.0629 25.3765 16.9959 25.8646 16.826L24.2218 12.1037C24.3845 12.047 24.5572 12.0247 24.7289 12.038L24.3432 17.0231ZM25.8646 16.826C26.3528 16.6562 26.8005 16.3874 27.1798 16.0363L23.7834 12.3669C23.9098 12.2499 24.0591 12.1603 24.2218 12.1037L25.8646 16.826ZM27.1798 16.0363C27.5591 15.6852 27.8618 15.2595 28.0687 14.7859L23.4871 12.7837C23.5561 12.6258 23.657 12.4839 23.7834 12.3669L27.1798 16.0363ZM28.0687 14.7859C28.2757 14.3123 28.3825 13.8011 28.3825 13.2842L23.3825 13.2843C23.3825 13.112 23.4181 12.9416 23.4871 12.7837L28.0687 14.7859ZM28.3825 13.2842C28.3825 12.7674 28.2757 12.2562 28.0687 11.7826L23.4871 13.7848C23.4181 13.6269 23.3825 13.4565 23.3825 13.2843L28.3825 13.2842ZM28.0687 11.7826C27.8618 11.309 27.5591 10.8833 27.1798 10.5322L23.7834 14.2016C23.657 14.0846 23.5561 13.9427 23.4871 13.7848L28.0687 11.7826ZM27.1798 10.5322C26.8006 10.1812 26.3528 9.91227 25.8646 9.74245L24.2218 14.4648C24.0591 14.4082 23.9098 14.3186 23.7834 14.2016L27.1798 10.5322ZM25.8646 9.74245C25.3765 9.57263 24.8585 9.50556 24.3433 9.54542L24.7289 14.5305C24.5572 14.5438 24.3845 14.5215 24.2218 14.4648L25.8646 9.74245ZM24.5361 9.53797L14.5305 9.53797L14.5305 14.538L24.5361 14.538L24.5361 9.53797ZM17.0305 12.038L17.0305 2.03241L12.0305 2.03241L12.0305 12.038L17.0305 12.038ZM17.0231 1.83957C16.9502 0.8979 16.5247 0.0183942 15.8316 -0.623187L12.4351 3.04617C12.2041 2.83231 12.0623 2.53914 12.038 2.22525L17.0231 1.83957ZM15.8316 -0.623187C15.1384 -1.26477 14.2287 -1.62117 13.2843 -1.62117L13.2843 3.37883C12.9694 3.37883 12.6662 3.26004 12.4351 3.04617L15.8316 -0.623187ZM13.2843 -1.62117C12.3398 -1.62117 11.4301 -1.26477 10.7369 -0.623188L14.1334 3.04617C13.9023 3.26004 13.5991 3.37883 13.2843 3.37883L13.2843 -1.62117ZM10.7369 -0.623188C10.0438 0.0183942 9.61828 0.8979 9.54543 1.83957L14.5305 2.22525C14.5062 2.53914 14.3644 2.83231 14.1334 3.04617L10.7369 -0.623188ZM9.53798 2.03241L9.53798 12.038L14.538 12.038L14.538 2.03241L9.53798 2.03241ZM12.038 9.53797L2.03242 9.53797L2.03242 14.538L12.038 14.538L12.038 9.53797ZM2.02498 9.53798C1.03429 9.54093 0.0850185 9.93578 -0.615513 10.6363L2.92002 14.1718C2.68651 14.4054 2.37008 14.537 2.03986 14.538L2.02498 9.53798ZM-0.615513 10.6363C-1.31605 11.3368 -1.7109 12.2861 -1.71385 13.2768L3.28613 13.2917C3.28515 13.6219 3.15353 13.9383 2.92002 14.1718L-0.615513 10.6363ZM-1.71385 13.2917C-1.7109 14.2824 -1.31604 15.2317 -0.615513 15.9322L2.92002 12.3966C3.15353 12.6302 3.28515 12.9466 3.28613 13.2768L-1.71385 13.2917ZM-0.615513 15.9322C0.0850141 16.6327 1.03429 17.0276 2.02498 17.0305L2.03986 12.0305C2.37009 12.0315 2.68651 12.1631 2.92002 12.3966L-0.615513 15.9322ZM2.03242 17.0305L12.038 17.0305L12.038 12.0305L2.03242 12.0305L2.03242 17.0305ZM9.53798 14.5305L9.53798 24.5361H14.538L14.538 14.5305L9.53798 14.5305ZM9.53799 24.5435C9.54094 25.5342 9.9358 26.4835 10.6363 27.184L14.1719 23.6485C14.4054 23.882 14.537 24.1984 14.538 24.5286L9.53799 24.5435ZM10.6363 27.184C11.3369 27.8845 12.2861 28.2794 13.2768 28.2823L13.2917 23.2824C13.6219 23.2834 13.9383 23.415 14.1719 23.6485L10.6363 27.184ZM13.2917 28.2823C14.2824 28.2794 15.2317 27.8845 15.9322 27.184L12.3967 23.6485C12.6302 23.415 12.9466 23.2834 13.2768 23.2824L13.2917 28.2823ZM15.9322 27.184C16.6327 26.4835 17.0276 25.5342 17.0305 24.5435L12.0305 24.5286C12.0315 24.1984 12.1631 23.882 12.3967 23.6485L15.9322 27.184ZM17.0305 24.5361L17.0305 14.5305L12.0305 14.5305L12.0305 24.5361L17.0305 24.5361Z" fill="#FCFCFC" mask="url(#path-1-inside-1_1738_3846)"/>
</g>
</g>
</svg>
